#N canvas 670 148 336 254 10;
#X obj 139 161 cos~;
#X obj 193 161 cos~;
#X obj 19 197 *~;
#X obj 139 197 *~;
#X obj 19 57 inlet~ radius r;
#X obj 19 221 outlet~ abscissa x;
#X obj 139 221 outlet~ ordinate y;
#X obj 139 57 inlet~ azimuth θ;
#X obj 139 139 +~ 0.25;
#X obj 139 97 /~ 6.28319;
#X text 19 39 y = r * sin(θ);
#X text 19 24 x = r * cos(θ);
#X text 19 5 Polar coordinates to cartesian coordinates;
#X connect 0 0 2 1;
#X connect 1 0 3 1;
#X connect 2 0 5 0;
#X connect 3 0 6 0;
#X connect 4 0 2 0;
#X connect 4 0 3 0;
#X connect 7 0 9 0;
#X connect 8 0 0 0;
#X connect 9 0 8 0;
#X connect 9 0 1 0;
#X coords 0 254 1 253 54 14 0;
