#N canvas 0 22 612 272 10;
#X text 112 115 CICM | Université Paris 8 | Labex Arts H2H;
#X text 197 129 2014 - 2016;
#X text 102 101 High Order Ambisonics tutorials by P. Guillot;
#X coords 0 -1 1 1 282 46 2 100 100;
