#N canvas 284 278 501 388 10;
#X obj 90 96 -~;
#X obj 90 118 /~ 2;
#X obj 90 185 *~;
#X obj 90 163 cos~;
#X obj 90 141 +~ 0.25;
#X obj 210 96 -~;
#X obj 210 118 /~ 2;
#X obj 210 185 *~;
#X obj 210 163 cos~;
#X obj 210 141 +~ 0.25;
#X obj 150 117 cos~;
#X obj 181 117 cos~;
#X obj 150 139 *~;
#X obj 150 211 *~;
#X obj 90 229 +~;
#X obj 90 251 sqrt~;
#X obj 90 273 expr~ asin($v1);
#X obj 90 295 *~ 2;
#X obj 90 317 outlet~;
#X obj 90 37 inlet~;
#X obj 160 37 inlet~;
#X obj 240 37 inlet~;
#X obj 320 37 inlet~;
#X obj 240 59 /~ 6.28319;
#X obj 90 59 /~ 6.28319;
#X obj 320 59 /~ 6.28319;
#X obj 160 59 /~ 6.28319;
#X connect 0 0 1 0;
#X connect 1 0 4 0;
#X connect 2 0 14 0;
#X connect 3 0 2 0;
#X connect 3 0 2 1;
#X connect 4 0 3 0;
#X connect 5 0 6 0;
#X connect 6 0 9 0;
#X connect 7 0 13 1;
#X connect 8 0 7 0;
#X connect 8 0 7 1;
#X connect 9 0 8 0;
#X connect 10 0 12 0;
#X connect 11 0 12 1;
#X connect 12 0 13 0;
#X connect 13 0 14 1;
#X connect 14 0 15 0;
#X connect 15 0 16 0;
#X connect 16 0 17 0;
#X connect 17 0 18 0;
#X connect 19 0 24 0;
#X connect 20 0 26 0;
#X connect 21 0 23 0;
#X connect 22 0 25 0;
#X connect 23 0 0 1;
#X connect 23 0 11 0;
#X connect 24 0 0 0;
#X connect 24 0 10 0;
#X connect 25 0 5 1;
#X connect 26 0 5 0;
#X coords 0 388 1 387 54 14 0;
