#N canvas 143 378 188 182 10;
#X obj 12 14 inlet;
#X obj 75 66 f \$1;
#X obj 75 88 sel \$2;
#X obj 108 66 + \$3;
#X obj 75 110 f \$1;
#X obj 108 140 outlet;
#X obj 12 36 route reset;
#X obj 12 80 f \$1;
#X obj 12 58 bang;
#X connect 0 0 6 0;
#X connect 1 0 2 0;
#X connect 2 0 4 0;
#X connect 2 1 3 0;
#X connect 2 1 5 0;
#X connect 3 0 1 1;
#X connect 4 0 1 0;
#X connect 6 0 8 0;
#X connect 6 1 1 0;
#X connect 7 0 1 1;
#X connect 8 0 7 0;
