#N canvas 1191 362 450 300 10;
#X obj 100 100 nbx 5 14 -1e+37 1e+37 0 0 \$0-dummy-s \$0-dummy-r empty
0 -8 0 10 -262144 -1 -1 2.88866 256;
#X obj 100 47 inlet~;
#X obj 100 79 snapshot~;
#X obj 100 119 outlet;
#X obj 162 46 metro 100;
#X obj 162 18 loadbang;
#X connect 1 0 2 0;
#X connect 2 0 0 0;
#X connect 2 0 3 0;
#X connect 4 0 2 0;
#X connect 5 0 4 0;
#X coords 0 -1 1 1 54 14 2 100 100;
