#N canvas 154 366 152 242 10;
#X obj 19 105 abs~;
#X obj 19 127 *~ -1;
#X obj 19 149 +~ 1;
#X obj 19 83 cos~;
#X obj 58 61 +~ 0.25;
#X obj 58 83 cos~;
#X obj 58 127 /~;
#X obj 73 105 abs~;
#X obj 19 171 *~, f 7;
#X obj 19 17 inlet;
#X obj 19 39 phasor~ \$1;
#X obj 19 193 outlet~;
#X connect 0 0 1 0;
#X connect 1 0 2 0;
#X connect 2 0 8 0;
#X connect 3 0 0 0;
#X connect 4 0 5 0;
#X connect 5 0 6 0;
#X connect 5 0 7 0;
#X connect 6 0 8 1;
#X connect 7 0 6 1;
#X connect 8 0 11 0;
#X connect 9 0 10 0;
#X connect 10 0 3 0;
#X connect 10 0 4 0;
#X coords 0 242 1 241 14 84 0;
