#N canvas 0 22 501 388 10;
#X obj 141 235 cos~;
#X obj 195 235 cos~;
#X obj 276 235 cos~;
#X obj 310 235 cos~;
#X obj 21 271 *~;
#X obj 21 293 *~;
#X obj 141 271 *~;
#X obj 141 293 *~;
#X obj 261 293 *~;
#X obj 21 131 inlet~ radius r;
#X obj 21 315 outlet~ abscissa x;
#X obj 141 315 outlet~ ordinate y;
#X obj 261 315 outlet~ height z;
#X text 19 9 Spherical coordinates to cartesian coordinates;
#X text 19 73 The abstraction expects that the signals of the angles
(azimuth and elevation) are divided by 2π like for the output signal
of the vanilla cos~ object.;
#X text 19 29 x = r * cos(θ) * sin(ϕ);
#X text 19 43 y = r * sin(θ) * sin(ϕ);
#X text 19 57 z = r * cos(ϕ);
#X obj 141 131 inlet~ azimuth θ;
#X obj 276 131 inlet~ elevation ϕ;
#X obj 392 109 loadbang;
#X obj 392 131 hoa.pi 2;
#X obj 276 213 +~ 0.25;
#X obj 276 191 /~ -6.28319;
#X obj 392 153 * -1;
#X obj 141 213 +~ 0.25;
#X obj 141 171 /~ 6.28319;
#X connect 0 0 4 1;
#X connect 1 0 6 1;
#X connect 2 0 8 1;
#X connect 3 0 5 1;
#X connect 3 0 7 1;
#X connect 4 0 5 0;
#X connect 5 0 10 0;
#X connect 6 0 7 0;
#X connect 7 0 11 0;
#X connect 8 0 12 0;
#X connect 9 0 4 0;
#X connect 9 0 6 0;
#X connect 9 0 8 0;
#X connect 18 0 26 0;
#X connect 19 0 23 0;
#X connect 20 0 21 0;
#X connect 21 0 24 0;
#X connect 21 0 26 1;
#X connect 22 0 2 0;
#X connect 23 0 22 0;
#X connect 23 0 3 0;
#X connect 24 0 23 1;
#X connect 25 0 0 0;
#X connect 26 0 25 0;
#X connect 26 0 1 0;
#X coords 0 388 1 387 54 14 0;
