#N canvas 0 22 396 282 10;
#X obj 241 190 /~;
#X text 9 8 Cartesian coordinates to spherical coordinates;
#X obj 11 80 inlet~ abscissa x;
#X obj 124 80 inlet~ ordinate y;
#X obj 241 80 inlet~ height z;
#X obj 11 112 *~;
#X obj 124 112 *~;
#X obj 251 112 *~;
#X obj 11 144 sqrt~;
#X obj 11 237 outlet~ radius r;
#X text 9 28 r = √(x*x+y*y+z*z);
#X text 9 42 θ = atan2(y \, x);
#X text 9 56 ϕ = acos(z/r);
#X obj 124 237 outlet~ azimuth θ;
#X obj 241 237 outlet~ elevation ϕ;
#X obj 241 212 expr~ asin($v1);
#X obj 124 161 expr~ -atan2($v1 \, $v2);
#X connect 0 0 15 0;
#X connect 2 0 5 0;
#X connect 2 0 5 1;
#X connect 2 0 16 0;
#X connect 3 0 6 0;
#X connect 3 0 6 1;
#X connect 3 0 16 1;
#X connect 4 0 0 0;
#X connect 4 0 7 0;
#X connect 4 0 7 1;
#X connect 5 0 8 0;
#X connect 6 0 8 0;
#X connect 7 0 8 0;
#X connect 8 0 9 0;
#X connect 8 0 0 1;
#X connect 15 0 14 0;
#X connect 16 0 13 0;
#X coords 0 282 1 281 54 14 0;
