#N canvas 0 22 289 235 10;
#X obj 11 80 inlet~ abscissa x;
#X obj 124 80 inlet~ ordinate y;
#X obj 11 112 *~;
#X obj 124 112 *~;
#X obj 11 144 sqrt~;
#X obj 11 188 outlet~ radius r;
#X text 9 42 θ = atan2(y \, x);
#X text 9 56 ϕ = acos(z/r);
#X obj 124 188 outlet~ azimuth θ;
#X obj 124 161 expr~ atan2($v1 \, $v2);
#X text 9 28 r = √(x*x+y*y);
#X text 9 8 Cartesian coordinates to polar coordinates;
#X connect 0 0 2 0;
#X connect 0 0 2 1;
#X connect 0 0 9 0;
#X connect 1 0 3 0;
#X connect 1 0 3 1;
#X connect 1 0 9 1;
#X connect 2 0 4 0;
#X connect 3 0 4 0;
#X connect 4 0 5 0;
#X connect 9 0 8 0;
#X coords 0 235 1 234 54 14 0;
