#N canvas 0 22 163 208 10;
#X obj 20 20 inlet~;
#X obj 35 42 wrap~;
#X obj 20 64 -~;
#X obj 65 64 /~;
#X obj 80 42 abs~;
#X obj 20 152 outlet~;
#X obj 20 130 -~, f 8;
#X obj 65 86 -~ 1;
#X obj 65 108 max~ -1;
#X connect 0 0 1 0;
#X connect 0 0 2 0;
#X connect 0 0 4 0;
#X connect 0 0 3 0;
#X connect 1 0 2 1;
#X connect 2 0 6 0;
#X connect 3 0 7 0;
#X connect 4 0 3 1;
#X connect 6 0 5 0;
#X connect 7 0 8 0;
#X connect 8 0 6 1;
