#N canvas 0 22 565 576 10;
#X obj 31 52 hoa.3d.encoder~ 3, f 28;
#X obj 31 27 sig~ 1;
#X obj 31 75 hoa.3d.optim~ 3 inPhase, f 28;
#X obj 113 23 inlet~;
#X obj 196 23 inlet~;
#X obj 31 258 outlet~;
#X obj 113 258 outlet~;
#X obj 196 258 outlet~;
#X obj 31 149 hoa.3d.process~ 8 ../hoa.3d.proc.vector.energy~ planewaves
@angles 0 0 45 0 90 0 135 0 180 0 225 0 270 0 315 0, f 28;
#X obj 31 97 hoa.3d.decoder~ 3 regular 8 @angles 0 0 45 0 90 0 135
0 180 0 225 0 270 0 315 0, f 28;
#X obj 270 195 hoa.2d.meter~ @size 225 225 @fontname "Helvetica" @fontweight
"normal" @fontslant "roman" @fontsize 11 @receive "(null)" @send "(null)"
@channels 8 @angles 0 45 90 135 180 225 270 315 @offset 0 @rotation
 @vectors "none" @interval 50 @bgcolor 0.76 0.76 0.76 1 @bdcolor 0.7
0.7 0.7 1 @coldcolor 0 0.6 0 0.8 @tepidcolor 0.6 0.73 0 0.8 @warmcolor
0.85 0.85 0 0.8 @hotcolor 1 0.6 0 0.8 @overcolor 1 0 0 0.8 @energycolor
0 0 1 0.8 @velocitycolor 1 0 0 0.8;
#X obj 300 76 bng 15 250 50 0 empty empty empty 17 7 0 10 -262144 -1
-1;
#X obj 300 96 hoa.connect;
#X obj 106 306 hoa.number~;
#X obj 89 411 hoa.number~;
#X obj 48 328 hoa.number~;
#X obj 28 349 hoa.number~;
#X obj 38 379 hoa.number~;
#X obj 178 388 hoa.number~;
#X obj 198 359 hoa.number~;
#X obj 168 329 hoa.number~;
#X connect 0 0 2 0;
#X connect 0 1 2 1;
#X connect 0 2 2 2;
#X connect 0 3 2 3;
#X connect 0 4 2 4;
#X connect 0 5 2 5;
#X connect 0 6 2 6;
#X connect 0 7 2 7;
#X connect 0 8 2 8;
#X connect 0 9 2 9;
#X connect 0 10 2 10;
#X connect 0 11 2 11;
#X connect 0 12 2 12;
#X connect 0 13 2 13;
#X connect 0 14 2 14;
#X connect 0 15 2 15;
#X connect 1 0 0 0;
#X connect 2 0 9 0;
#X connect 2 1 9 1;
#X connect 2 2 9 2;
#X connect 2 3 9 3;
#X connect 2 4 9 4;
#X connect 2 5 9 5;
#X connect 2 6 9 6;
#X connect 2 7 9 7;
#X connect 2 8 9 8;
#X connect 2 9 9 9;
#X connect 2 10 9 10;
#X connect 2 11 9 11;
#X connect 2 12 9 12;
#X connect 2 13 9 13;
#X connect 2 14 9 14;
#X connect 2 15 9 15;
#X connect 3 0 0 1;
#X connect 4 0 0 2;
#X connect 8 0 5 0;
#X connect 8 1 6 0;
#X connect 8 2 7 0;
#X connect 9 0 8 0;
#X connect 9 0 10 0;
#X connect 9 0 13 0;
#X connect 9 1 8 1;
#X connect 9 1 10 1;
#X connect 9 1 15 0;
#X connect 9 2 8 2;
#X connect 9 2 10 2;
#X connect 9 2 16 0;
#X connect 9 3 8 3;
#X connect 9 3 10 3;
#X connect 9 3 17 0;
#X connect 9 4 8 4;
#X connect 9 4 10 4;
#X connect 9 4 14 0;
#X connect 9 5 8 5;
#X connect 9 5 10 5;
#X connect 9 5 18 0;
#X connect 9 6 8 6;
#X connect 9 6 10 6;
#X connect 9 6 19 0;
#X connect 9 7 8 7;
#X connect 9 7 10 7;
#X connect 9 7 20 0;
#X connect 11 0 12 0;
