#N canvas 0 22 458 433 10;
#X obj 31 52 hoa.3d.encoder~ 3, f 28;
#X obj 31 27 sig~ 1;
#X obj 31 75 hoa.3d.optim~ 3 inPhase, f 28;
#X obj 113 23 inlet~;
#X obj 196 23 inlet~;
#X obj 31 258 outlet~;
#X obj 113 258 outlet~;
#X obj 196 258 outlet~;
#X obj 31 119 hoa.3d.process~ 12 ../hoa.3d.proc.vector.energy~ planewaves
@angles 180 90 0 26.5651 324 -26.5651 72 26.5651 36 -26.5651 144 26.5651
108 -26.5651 216 26.5651 180 -26.5651 288 26.5651 252 -26.5651 180
-90, f 28;
#X obj 31 97 hoa.3d.decoder~ 3 regular 12;
#X connect 0 0 2 0;
#X connect 0 1 2 1;
#X connect 0 2 2 2;
#X connect 0 3 2 3;
#X connect 0 4 2 4;
#X connect 0 5 2 5;
#X connect 0 6 2 6;
#X connect 0 7 2 7;
#X connect 0 8 2 8;
#X connect 0 9 2 9;
#X connect 0 10 2 10;
#X connect 0 11 2 11;
#X connect 0 12 2 12;
#X connect 0 13 2 13;
#X connect 0 14 2 14;
#X connect 0 15 2 15;
#X connect 1 0 0 0;
#X connect 2 0 9 0;
#X connect 2 1 9 1;
#X connect 2 2 9 2;
#X connect 2 3 9 3;
#X connect 2 4 9 4;
#X connect 2 5 9 5;
#X connect 2 6 9 6;
#X connect 2 7 9 7;
#X connect 2 8 9 8;
#X connect 2 9 9 9;
#X connect 2 10 9 10;
#X connect 2 11 9 11;
#X connect 2 12 9 12;
#X connect 2 13 9 13;
#X connect 2 14 9 14;
#X connect 2 15 9 15;
#X connect 3 0 0 1;
#X connect 4 0 0 2;
#X connect 8 0 5 0;
#X connect 8 1 6 0;
#X connect 8 2 7 0;
#X connect 9 0 8 0;
#X connect 9 1 8 1;
#X connect 9 2 8 2;
#X connect 9 3 8 3;
#X connect 9 4 8 4;
#X connect 9 5 8 5;
#X connect 9 6 8 6;
#X connect 9 7 8 7;
#X connect 9 8 8 8;
#X connect 9 9 8 9;
#X connect 9 10 8 10;
#X connect 9 11 8 11;
