#N canvas 0 22 458 433 10;
#X obj 31 52 hoa.3d.encoder~ 3, f 28;
#X obj 31 97 hoa.3d.decoder~ 3 regular 20;
#X obj 31 27 sig~ 1;
#X obj 31 75 hoa.3d.optim~ 3 inPhase, f 28;
#X obj 113 23 inlet~;
#X obj 196 23 inlet~;
#X obj 31 119 hoa.3d.process~ 20 ../hoa.3d.proc.vector.energy~ planewaves
@angles 180 69.1 159.1 0 90 20.9 135 35.3 135 -35.3 180 -69.1 20.9
0 90 -20.9 45 35.3 45 -35.3 0 69.1 200.9 0 270 20.9 225 35.3 225 -35.3
0 -69.1 339.1 0 270 -20.9 315 35.3 315 -35.3, f 28;
#X obj 31 258 outlet~;
#X obj 113 258 outlet~;
#X obj 196 258 outlet~;
#X connect 0 0 3 0;
#X connect 0 1 3 1;
#X connect 0 2 3 2;
#X connect 0 3 3 3;
#X connect 0 4 3 4;
#X connect 0 5 3 5;
#X connect 0 6 3 6;
#X connect 0 7 3 7;
#X connect 0 8 3 8;
#X connect 0 9 3 9;
#X connect 0 10 3 10;
#X connect 0 11 3 11;
#X connect 0 12 3 12;
#X connect 0 13 3 13;
#X connect 0 14 3 14;
#X connect 0 15 3 15;
#X connect 1 0 6 0;
#X connect 1 1 6 1;
#X connect 1 2 6 2;
#X connect 1 3 6 3;
#X connect 1 4 6 4;
#X connect 1 5 6 5;
#X connect 1 6 6 6;
#X connect 1 7 6 7;
#X connect 1 8 6 8;
#X connect 1 9 6 9;
#X connect 1 10 6 10;
#X connect 1 11 6 11;
#X connect 1 12 6 12;
#X connect 1 13 6 13;
#X connect 1 14 6 14;
#X connect 1 15 6 15;
#X connect 1 16 6 16;
#X connect 1 17 6 17;
#X connect 1 18 6 18;
#X connect 1 19 6 19;
#X connect 2 0 0 0;
#X connect 3 0 1 0;
#X connect 3 1 1 1;
#X connect 3 2 1 2;
#X connect 3 3 1 3;
#X connect 3 4 1 4;
#X connect 3 5 1 5;
#X connect 3 6 1 6;
#X connect 3 7 1 7;
#X connect 3 8 1 8;
#X connect 3 9 1 9;
#X connect 3 10 1 10;
#X connect 3 11 1 11;
#X connect 3 12 1 12;
#X connect 3 13 1 13;
#X connect 3 14 1 14;
#X connect 3 15 1 15;
#X connect 4 0 0 1;
#X connect 5 0 0 2;
#X connect 6 0 7 0;
#X connect 6 1 8 0;
#X connect 6 2 9 0;
