#N canvas 486 23 696 348 10;
#X obj 61 99 loadbang;
#X obj 61 121 t b b, f 6;
#X obj 61 165 *, f 6;
#X obj 19 143 bang;
#X obj 61 209 switch~;
#X msg 61 187 set \$1;
#N canvas 775 225 374 176 subptach~ 0;
#X obj 9 17 inlet~;
#X obj 198 17 inlet~;
#X obj 9 110 outlet~;
#X obj 103 111 outlet~;
#X obj 198 108 outlet~;
#X obj 9 84 \$1, f 32;
#X obj 68 16 block~ 64, f 14;
#X connect 0 0 5 0;
#X connect 1 0 5 1;
#X connect 5 0 2 0;
#X connect 5 1 3 0;
#X connect 5 2 4 0;
#X restore 162 201 pd subptach~;
#X obj 94 143 f \$3;
#X obj 61 143 f \$2;
#X obj 162 227 hoa.3d.vector.analyzer~, f 28;
#N canvas 0 22 164 409 azimuth.gen~ 0;
#X obj 15 19 loadbang;
#X obj 15 85 samplerate~;
#X obj 15 107 /, f 5;
#X obj 15 149 phasor~, f 10;
#X obj 15 171 *~ \$1;
#X obj 30 198 wrap~;
#X obj 15 220 -~;
#X obj 60 220 /~;
#X obj 75 198 abs~;
#X obj 15 286 -~, f 8;
#X obj 60 242 -~ 1;
#X obj 60 264 max~ -1;
#X obj 72 129 f 0;
#X obj 15 129 abs;
#X obj 15 63 t b f;
#X obj 15 333 *~ 6.28319;
#X obj 72 107 r \$0-reset;
#X obj 15 41 f \$2;
#X obj 15 311 /~ \$2;
#X obj 15 355 outlet~;
#X connect 0 0 17 0;
#X connect 1 0 2 0;
#X connect 2 0 13 0;
#X connect 3 0 4 0;
#X connect 4 0 6 0;
#X connect 4 0 5 0;
#X connect 4 0 7 0;
#X connect 4 0 8 0;
#X connect 5 0 6 1;
#X connect 6 0 9 0;
#X connect 7 0 10 0;
#X connect 8 0 7 1;
#X connect 9 0 18 0;
#X connect 10 0 11 0;
#X connect 11 0 9 1;
#X connect 12 0 3 1;
#X connect 13 0 3 0;
#X connect 14 0 1 0;
#X connect 14 1 2 1;
#X connect 14 1 4 1;
#X connect 15 0 19 0;
#X connect 16 0 12 0;
#X connect 17 0 14 0;
#X connect 18 0 15 0;
#X restore 162 167 pd azimuth.gen~;
#N canvas 0 22 186 583 elevation.gen~ 0;
#X obj 8 497 -~ 0.5;
#X obj 8 519 *~ -3.14159;
#X obj 8 10 loadbang;
#X obj 8 98 t b f;
#X obj 8 120 samplerate~;
#X obj 8 142 /, f 5;
#X obj 8 184 phasor~, f 10;
#X obj 23 233 wrap~;
#X obj 8 255 -~;
#X obj 53 255 /~;
#X obj 68 233 abs~;
#X obj 8 321 -~, f 8;
#X obj 53 277 -~ 1;
#X obj 53 299 max~ -1;
#X obj 65 98 f 0;
#X obj 8 164 abs;
#X obj 8 32 t b b, f 6;
#X obj 8 76 *, f 6;
#X obj 8 206 *~ 0, f 5;
#X obj 23 364 wrap~;
#X obj 8 386 -~;
#X obj 53 386 /~;
#X obj 68 364 abs~;
#X obj 8 452 -~, f 8;
#X obj 53 408 -~ 1;
#X obj 53 430 max~ -1;
#X obj 107 408 loadbang;
#X obj 107 452 - 1;
#X obj 8 474 /~ 1, f 17;
#X obj 41 54 f \$3;
#X obj 107 430 f \$3;
#X obj 65 76 r \$0-reset;
#X obj 8 54 f \$2;
#X obj 8 342 /~ \$2;
#X obj 8 541 outlet~;
#X connect 0 0 1 0;
#X connect 1 0 34 0;
#X connect 2 0 16 0;
#X connect 3 0 4 0;
#X connect 3 1 5 1;
#X connect 3 1 18 1;
#X connect 4 0 5 0;
#X connect 5 0 15 0;
#X connect 6 0 18 0;
#X connect 7 0 8 1;
#X connect 8 0 11 0;
#X connect 9 0 12 0;
#X connect 10 0 9 1;
#X connect 11 0 33 0;
#X connect 12 0 13 0;
#X connect 13 0 11 1;
#X connect 14 0 6 1;
#X connect 15 0 6 0;
#X connect 16 0 32 0;
#X connect 16 1 29 0;
#X connect 17 0 3 0;
#X connect 18 0 8 0;
#X connect 18 0 7 0;
#X connect 18 0 9 0;
#X connect 18 0 10 0;
#X connect 19 0 20 1;
#X connect 20 0 23 0;
#X connect 21 0 24 0;
#X connect 22 0 21 1;
#X connect 23 0 28 0;
#X connect 24 0 25 0;
#X connect 25 0 23 1;
#X connect 26 0 30 0;
#X connect 27 0 28 1;
#X connect 28 0 0 0;
#X connect 29 0 17 1;
#X connect 30 0 27 0;
#X connect 31 0 14 0;
#X connect 32 0 17 0;
#X connect 33 0 19 0;
#X connect 33 0 20 0;
#X connect 33 0 22 0;
#X connect 33 0 21 0;
#X restore 263 166 pd elevation.gen~;
#X obj 166 89 route global resolution angular, f 41;
#X obj 247 111 s \$0-mode2;
#X obj 166 111 s \$0-mode1;
#X obj 328 111 s \$0-mode3;
#X msg 409 109 hoa.3d.vector.recorder;
#X obj 409 131 int;
#X obj 19 47 inlet;
#X obj 19 68 t b a, f 25;
#X obj 122 263 r \$0-mode1;
#X obj 122 284 bang;
#X obj 212 284 bang;
#X obj 212 263 r \$0-mode2;
#X obj 302 284 bang;
#X obj 302 263 r \$0-mode3;
#X obj 114 306 tabwrite~ \$4;
#X obj 204 306 tabwrite~ \$4;
#X obj 294 306 tabwrite~ \$4;
#X obj 21 268 bang~;
#X obj 21 290 outlet;
#X connect 0 0 1 0;
#X connect 1 0 8 0;
#X connect 1 1 7 0;
#X connect 2 0 5 0;
#X connect 3 0 4 0;
#X connect 5 0 4 0;
#X connect 6 0 9 0;
#X connect 6 1 9 1;
#X connect 6 2 9 2;
#X connect 7 0 2 1;
#X connect 8 0 2 0;
#X connect 9 0 26 0;
#X connect 9 1 27 0;
#X connect 9 2 28 0;
#X connect 10 0 6 0;
#X connect 10 0 9 3;
#X connect 11 0 6 1;
#X connect 11 0 9 4;
#X connect 12 0 14 0;
#X connect 12 1 13 0;
#X connect 12 2 15 0;
#X connect 12 3 16 0;
#X connect 16 0 17 0;
#X connect 18 0 19 0;
#X connect 19 0 3 0;
#X connect 19 1 12 0;
#X connect 20 0 21 0;
#X connect 21 0 26 0;
#X connect 22 0 27 0;
#X connect 23 0 22 0;
#X connect 24 0 28 0;
#X connect 25 0 24 0;
#X connect 29 0 30 0;
#X coords 0 348 1 347 86 80 0;
