#N canvas 284 278 226 305 10;
#X obj 10 94 -~, f 12;
#X obj 10 116 /~ 2;
#X obj 10 161 cos~;
#X obj 10 139 +~ 0.25;
#X obj 10 206 expr~ asin($v1);
#X obj 10 228 *~ 2;
#X obj 79 69 /~ 6.28319;
#X obj 10 69 /~ 6.28319;
#X obj 10 183 abs~;
#X obj 10 47 inlet~ θ1;
#X obj 79 47 inlet~ θ2;
#X text 9 6 The angular distance;
#X text 9 26 d = 2asin(|sin((θ1-θ2)/2)|);
#X obj 10 250 outlet~ d;
#X connect 0 0 1 0;
#X connect 1 0 3 0;
#X connect 2 0 8 0;
#X connect 3 0 2 0;
#X connect 4 0 5 0;
#X connect 5 0 13 0;
#X connect 6 0 0 1;
#X connect 7 0 0 0;
#X connect 8 0 4 0;
#X connect 9 0 7 0;
#X connect 10 0 6 0;
#X coords 0 305 1 304 54 14 0;
