#N canvas 284 278 429 206 10;
#X obj 12 84 -~;
#X obj 73 84 -~;
#X obj 12 106 *~;
#X obj 73 106 *~;
#X obj 12 138 sqrt~;
#X obj 12 160 outlet~;
#X text 9 7 Euclidean distance;
#X obj 12 52 inlet~ x1;
#X obj 73 52 inlet~ y1;
#X obj 134 52 inlet~ x2;
#X obj 195 52 inlet~ y2;
#X text 9 27 d = √((x1-x2)*(y1-y2)).;
#X connect 0 0 2 0;
#X connect 0 0 2 1;
#X connect 1 0 3 0;
#X connect 1 0 3 1;
#X connect 2 0 4 0;
#X connect 3 0 4 0;
#X connect 4 0 5 0;
#X connect 7 0 0 0;
#X connect 8 0 1 0;
#X connect 9 0 0 1;
#X connect 10 0 1 1;
#X coords 0 206 1 205 54 14 0;
