#N canvas 154 566 509 228 10;
#X obj 240 169 abs~;
#X obj 240 191 outlet~;
#X obj 295 191 outlet~;
#X obj 19 82 hoa.3d.distance.euclidean~, f 46;
#X obj 19 184 outlet~;
#X obj 295 156 hoa.3d.distance.angular~, f 29;
#X obj 182 52 misc/hoa.sphetocar~;
#X obj 240 147 -~ 1;
#X obj 240 107 misc/hoa.cartosphe~;
#X obj 19 16 inlet~ x;
#X obj 73 16 inlet~ y;
#X obj 128 16 inlet~ z;
#X obj 237 16 inlet~ a;
#X obj 293 16 inlet~ e;
#X obj 182 16 sig~ 1;
#X connect 0 0 1 0;
#X connect 3 0 4 0;
#X connect 5 0 2 0;
#X connect 6 0 3 3;
#X connect 6 1 3 4;
#X connect 6 2 3 5;
#X connect 7 0 0 0;
#X connect 8 0 7 0;
#X connect 8 1 5 0;
#X connect 8 2 5 1;
#X connect 9 0 3 0;
#X connect 9 0 8 0;
#X connect 10 0 3 1;
#X connect 10 0 8 1;
#X connect 11 0 3 2;
#X connect 11 0 8 2;
#X connect 12 0 6 1;
#X connect 12 0 5 2;
#X connect 13 0 6 2;
#X connect 13 0 5 3;
#X connect 14 0 6 0;
