#N canvas 520 416 328 365 10;
#X declare -stdlib Hoa;
#X obj 8 283 hoa-help;
#X obj 8 261 misc/hoa.credits;
#X obj 8 236 declare -stdlib Hoa;
#X obj 5 8 cnv 15 250 20 empty empty hoa.2d.distance.angular~ 4 10
0 14 -233017 -66577 0;
#X obj 7 307 misc/hoa.cite;
#X obj 8 213 misc/hoa.number~;
#X text 64 212 d;
#X obj 8 191 hoa.2d.distance.angular~, f 25;
#X obj 8 147 *~ 6.28319;
#X text 15 171 θ1;
#X text 163 171 θ2;
#X obj 8 121 phasor~ 0.01;
#X obj 155 152 sig~ 1.57079;
#X text 5 31 The abstraction computes the smallest distance between
two points on a circle \, measured along the surface of a circle using
the equation d = 2asin(|sin((θ1-θ2)/2)|)., f 44;
#X text 5 94 First azimuth;
#X text 151 128 Second azimuth;
#X connect 7 0 5 0;
#X connect 8 0 7 0;
#X connect 11 0 8 0;
#X connect 12 0 7 1;
