#N canvas 268 23 843 540 10;
#X declare -stdlib Hoa;
#X obj 12 394 hoa-help;
#X obj 12 372 misc/hoa.credits;
#X obj 12 347 declare -stdlib Hoa;
#X obj 5 8 cnv 15 250 20 empty empty hoa.3d.proc.vector.energy~ 4 10
0 14 -233017 -66577 0;
#X obj 455 94 hoa.3d.encoder~ 3, f 37;
#X obj 455 69 sig~ 1;
#X obj 564 67 *~ 6.28319;
#X msg 346 350 \; pd dsp 1;
#X msg 346 390 \; pd dsp 0;
#X obj 564 45 phasor~ 0.1;
#X obj 12 420 bng 15 250 50 0 empty empty empty 17 7 0 10 -262144 -1
-1;
#X obj 12 440 hoa.connect;
#X obj 455 169 hoa.3d.decoder~ 3 regular 20, f 37;
#X obj 455 418 misc/hoa.number~;
#X obj 564 418 misc/hoa.number~;
#X obj 674 418 misc/hoa.number~;
#X obj 674 19 nbx 5 14 -1e+37 1e+37 0 0 empty empty empty 0 -8 0 10
-262144 -1 -1 0 256;
#X obj 455 197 hoa.3d.meter~ @size 225 112.5 @fontname "Helvetica"
@fontweight "normal" @fontslant "roman" @fontsize 11 @receive "(null)"
@send "(null)" @channels 20 @angles 180 69.1 159.1 0 90 20.9 135 35.3
135 -35.3 180 -69.1 20.9 0 90 -20.9 45 35.3 45 -35.3 0 69.1 200.9 0
270 20.9 225 35.3 225 -35.3 0 -69.1 339.1 0 270 -20.9 315 35.3 315
-35.3 @offset 0 0 0 @rotation "anti-clockwise" @view "top-bottom" @vectors
"energy" @interval 50 @bgcolor 1 1 1 1 @bdcolor 0.7 0.7 0.7 1 @coldcolor
0 0.6 0 0.8 @tepidcolor 0.6 0.73 0 0.8 @warmcolor 0.85 0.85 0 0.8 @hotcolor
1 0.6 0 0.8 @overcolor 1 0 0 0.8 @energycolor 0 0 1 0.8 @velocitycolor
1 0 0 0.8;
#X obj 455 316 hoa.3d.process~ 20 hoa.3d.proc.vector.energy~ planewaves
@angles 180 69.1 159.1 0 90 20.9 135 35.3 135 -35.3 180 -69.1 20.9
0 90 -20.9 45 35.3 45 -35.3 0 69.1 200.9 0 270 20.9 225 35.3 225 -35.3
0 -69.1 339.1 0 270 -20.9 315 35.3 315 -35.3, f 37;
#X text 460 438 abscissa;
#X text 568 438 ordinate;
#X text 678 438 height;
#X obj 674 44 misc/hoa.cos.flip~ 0.03;
#X obj 674 68 *~ 1.57079;
#X text 5 73 with Gi the amplitude and Ui the direction of the loudspeaker
i., f 68;
#X obj 564 19 nbx 5 14 -1e+37 1e+37 0 0 empty empty empty 0 -8 0 10
-262144 -1 -1 0 256;
#X obj 455 459 misc/hoa.cartosphe~, f 37;
#X obj 455 485 misc/hoa.number~;
#X obj 564 485 misc/hoa.number~;
#X obj 674 485 misc/hoa.number~;
#X text 460 505 radius;
#X text 568 505 azimuth;
#X text 678 505 elevation;
#X obj 7 474 misc/hoa.cite;
#X text 5 58 E = ∑[i=1:N]Gi^2Ui/∑[i=1:N]Gi^2;
#X text 5 103 According to M. A. Gerzon \, this vector gives the perceived
direction of a sound source in the high frequencies (≈ > 700Hz).
As the equation uses the square of the amplitude of the signals \,
the polarity of the signals is ignored. Thus the equation gives the
average direction of the incoming energy - in which direction the energy
is concentred., f 68;
#X msg 693 99 symbol inPhase;
#X msg 693 119 symbol maxRe;
#X obj 455 147 hoa.3d.optim~ 3 maxRe, f 37;
#X msg 693 141 symbol basic;
#X text 6 197 According to J. Daniel \, the perceived precision of
the sound field is defined by the radius the energy vector (rE = |E|).
If rE is equal to 1 \, this is the ideal circumstance of a plane wave
and if rE is equal to 0 \, the sound field is omnidirectionnal., f
68;
#X text 6 267 So the energy vector can be used to characterized the
rendering of the sound field in the high frequencies. It is an efficient
tools to anticipate the efficiency of an optimization., f 68;
#X text 5 31 The abstraction computes the energy vector of the sound
field defined by, f 68;
#X connect 4 0 38 0;
#X connect 4 1 38 1;
#X connect 4 2 38 2;
#X connect 4 3 38 3;
#X connect 4 4 38 4;
#X connect 4 5 38 5;
#X connect 4 6 38 6;
#X connect 4 7 38 7;
#X connect 4 8 38 8;
#X connect 4 9 38 9;
#X connect 4 10 38 10;
#X connect 4 11 38 11;
#X connect 4 12 38 12;
#X connect 4 13 38 13;
#X connect 4 14 38 14;
#X connect 4 15 38 15;
#X connect 5 0 4 0;
#X connect 6 0 4 1;
#X connect 9 0 6 0;
#X connect 10 0 11 0;
#X connect 12 0 17 0;
#X connect 12 0 18 0;
#X connect 12 1 17 1;
#X connect 12 1 18 1;
#X connect 12 2 17 2;
#X connect 12 2 18 2;
#X connect 12 3 17 3;
#X connect 12 3 18 3;
#X connect 12 4 17 4;
#X connect 12 4 18 4;
#X connect 12 5 17 5;
#X connect 12 5 18 5;
#X connect 12 6 17 6;
#X connect 12 6 18 6;
#X connect 12 7 17 7;
#X connect 12 7 18 7;
#X connect 12 8 17 8;
#X connect 12 8 18 8;
#X connect 12 9 17 9;
#X connect 12 9 18 9;
#X connect 12 10 17 10;
#X connect 12 10 18 10;
#X connect 12 11 17 11;
#X connect 12 11 18 11;
#X connect 12 12 17 12;
#X connect 12 12 18 12;
#X connect 12 13 17 13;
#X connect 12 13 18 13;
#X connect 12 14 17 14;
#X connect 12 14 18 14;
#X connect 12 15 17 15;
#X connect 12 15 18 15;
#X connect 12 16 17 16;
#X connect 12 16 18 16;
#X connect 12 17 17 17;
#X connect 12 17 18 17;
#X connect 12 18 17 18;
#X connect 12 18 18 18;
#X connect 12 19 17 19;
#X connect 12 19 18 19;
#X connect 16 0 22 0;
#X connect 18 0 13 0;
#X connect 18 0 26 0;
#X connect 18 1 14 0;
#X connect 18 1 26 1;
#X connect 18 2 15 0;
#X connect 18 2 26 2;
#X connect 22 0 23 0;
#X connect 23 0 4 2;
#X connect 25 0 9 0;
#X connect 26 0 27 0;
#X connect 26 1 28 0;
#X connect 26 2 29 0;
#X connect 36 0 38 15;
#X connect 37 0 38 15;
#X connect 38 0 12 0;
#X connect 38 1 12 1;
#X connect 38 2 12 2;
#X connect 38 3 12 3;
#X connect 38 4 12 4;
#X connect 38 5 12 5;
#X connect 38 6 12 6;
#X connect 38 7 12 7;
#X connect 38 8 12 8;
#X connect 38 9 12 9;
#X connect 38 10 12 10;
#X connect 38 11 12 11;
#X connect 38 12 12 12;
#X connect 38 13 12 13;
#X connect 38 14 12 14;
#X connect 38 15 12 15;
#X connect 39 0 38 15;
