#N canvas 654 87 541 547 10;
#X obj 29 205 hoa.in~;
#X obj 12 56 hoa.thisprocess~ @angles;
#X obj 153 77 route angles;
#X obj 12 14 loadbang;
#X obj 153 165 list split;
#X obj 213 99 f \$2;
#X obj 213 121 - 1;
#X obj 12 36 t b b, f 34;
#N canvas 1042 244 154 227 poltocar 0;
#X obj 14 24 inlet;
#X obj 14 115 t f f, f 8;
#X obj 14 137 cos;
#X obj 59 137 sin;
#X obj 14 183 outlet;
#X obj 14 91 * 3.14159;
#X obj 14 46 + 90;
#X obj 14 69 / 180;
#X obj 14 161 pack f f;
#X connect 0 0 6 0;
#X connect 1 0 2 0;
#X connect 1 1 3 0;
#X connect 2 0 8 0;
#X connect 3 0 8 1;
#X connect 5 0 1 0;
#X connect 6 0 7 0;
#X connect 7 0 5 0;
#X connect 8 0 4 0;
#X restore 181 211 pd poltocar;
#X obj 29 239 *~;
#X obj 160 332 *~ 1;
#X obj 217 302 *~ 1;
#X obj 29 423 throw~;
#X msg 19 401 set \$1;
#X obj 19 377 makefilename %d-ve-sum;
#X obj 352 15 loadbang;
#X obj 352 61 f \$0;
#X obj 352 37 t b b, f 6;
#X obj 385 83 - 1;
#X obj 352 105 -, f 6;
#X obj 352 127 s \$0-ref;
#X obj 19 354 r \$0-ref;
#X obj 160 483 throw~;
#X msg 150 461 set \$1;
#X obj 150 414 r \$0-ref;
#X obj 150 437 makefilename %d-ve-abs;
#X obj 217 393 throw~;
#X msg 207 371 set \$1;
#X obj 207 324 r \$0-ref;
#X obj 207 347 makefilename %d-ve-ord;
#X obj 385 61 f \$2;
#X obj 350 232 catch~ \$0-ve-abs;
#X obj 350 445 hoa.out~ extra 1;
#X obj 376 423 hoa.out~ extra 2;
#X obj 376 400 /~;
#X obj 350 400 /~;
#X obj 376 254 catch~ \$0-ve-ord;
#X obj 391 278 catch~ \$0-ve-sum;
#X obj 391 368 *~ 0;
#X obj 412 302 loadbang;
#X obj 412 324 f \$2;
#X obj 412 346 == 1;
#X obj 181 190 f;
#X obj 181 233 unpack f f;
#X connect 0 0 9 0;
#X connect 0 0 9 1;
#X connect 1 3 2 0;
#X connect 2 0 4 0;
#X connect 3 0 7 0;
#X connect 4 1 42 0;
#X connect 5 0 6 0;
#X connect 6 0 4 1;
#X connect 7 0 1 0;
#X connect 7 1 5 0;
#X connect 8 0 43 0;
#X connect 9 0 10 0;
#X connect 9 0 11 0;
#X connect 9 0 12 0;
#X connect 10 0 22 0;
#X connect 11 0 26 0;
#X connect 13 0 12 0;
#X connect 14 0 13 0;
#X connect 15 0 17 0;
#X connect 16 0 19 0;
#X connect 17 0 16 0;
#X connect 17 1 30 0;
#X connect 18 0 19 1;
#X connect 19 0 20 0;
#X connect 21 0 14 0;
#X connect 23 0 22 0;
#X connect 24 0 25 0;
#X connect 25 0 23 0;
#X connect 27 0 26 0;
#X connect 28 0 29 0;
#X connect 29 0 27 0;
#X connect 30 0 18 0;
#X connect 31 0 35 0;
#X connect 34 0 33 0;
#X connect 35 0 32 0;
#X connect 36 0 34 0;
#X connect 37 0 38 0;
#X connect 38 0 35 1;
#X connect 38 0 34 1;
#X connect 39 0 40 0;
#X connect 40 0 41 0;
#X connect 41 0 38 1;
#X connect 42 0 8 0;
#X connect 43 0 10 1;
#X connect 43 1 11 1;
