#N canvas 154 566 509 228 10;
#X obj 70 169 abs~;
#X obj 70 191 outlet~;
#X obj 175 191 outlet~;
#X obj 19 192 outlet~;
#X obj 70 147 -~ 1;
#X obj 19 16 inlet~ x;
#X obj 78 16 inlet~ y;
#X obj 316 16 inlet~ a;
#X obj 137 16 sig~ 1;
#X obj 70 107 misc/hoa.cartopol~;
#X obj 175 156 hoa.2d.distance.angular~;
#X obj 19 82 hoa.2d.distance.euclidean~, f 30;
#X obj 137 52 misc/hoa.poltocar~;
#X connect 0 0 1 0;
#X connect 4 0 0 0;
#X connect 5 0 9 0;
#X connect 5 0 11 0;
#X connect 6 0 9 1;
#X connect 6 0 11 1;
#X connect 7 0 10 1;
#X connect 7 0 12 1;
#X connect 8 0 12 0;
#X connect 9 0 4 0;
#X connect 9 1 10 0;
#X connect 10 0 2 0;
#X connect 11 0 3 0;
#X connect 12 0 11 2;
#X connect 12 1 11 3;
