#N canvas 138 23 902 650 10;
#X obj 5 7 inlet;
#X obj 33 303 f 0;
#X obj 5 303 f 1;
#X obj 103 326 s \$0-done;
#X obj 5 31 t b b a, f 25;
#X obj 152 52 route global resolution angular, f 41;
#X obj 233 74 s \$0-mode2;
#X obj 152 74 s \$0-mode1;
#X obj 314 74 s \$0-mode3;
#X msg 395 72 hoa.3d.vector.recorder;
#X obj 395 94 int;
#X obj 60 142 + 1;
#X obj 48 118 f 0;
#X obj 33 142 f;
#X obj 33 274 sel, f 5;
#X obj 70 166 loadbang;
#X obj 70 188 t b b, f 6;
#X obj 70 210 f \$1;
#X obj 70 232 *, f 6;
#X obj 103 210 f \$2;
#X obj 70 254 / 64;
#X obj 33 67 bang~;
#X obj 33 326 switch~ 64;
#X obj 693 514 -~ 0.5;
#X obj 693 536 *~ -3.14159;
#X obj 78 53 s \$0-reset;
#X obj 48 96 r \$0-reset;
#X obj 546 30 loadbang;
#X obj 546 52 f \$1;
#X obj 546 96 samplerate~;
#X obj 546 118 /, f 5;
#X obj 546 160 phasor~, f 10;
#X obj 546 182 *~ \$1;
#X obj 561 209 wrap~;
#X obj 546 231 -~;
#X obj 591 231 /~;
#X obj 606 209 abs~;
#X obj 546 297 -~, f 8;
#X obj 591 253 -~ 1;
#X obj 591 275 max~ -1;
#X obj 603 140 f 0;
#X obj 546 140 abs;
#X obj 546 74 t b f;
#X obj 546 344 *~ 6.28319;
#X obj 546 322 /~ \$1;
#X obj 546 369 outlet~ azimuth;
#X obj 603 118 r \$0-reset;
#X obj 693 27 loadbang;
#X obj 693 115 t b f;
#X obj 693 137 samplerate~;
#X obj 693 159 /, f 5;
#X obj 693 201 phasor~, f 10;
#X obj 708 250 wrap~;
#X obj 693 272 -~;
#X obj 738 272 /~;
#X obj 753 250 abs~;
#X obj 693 338 -~, f 8;
#X obj 738 294 -~ 1;
#X obj 738 316 max~ -1;
#X obj 750 115 f 0;
#X obj 693 181 abs;
#X obj 693 49 t b b, f 6;
#X obj 693 71 f \$1;
#X obj 693 93 *, f 6;
#X obj 726 71 f \$2;
#X obj 693 223 *~ 0, f 5;
#X obj 708 381 wrap~;
#X obj 693 403 -~;
#X obj 738 403 /~;
#X obj 753 381 abs~;
#X obj 693 469 -~, f 8;
#X obj 738 425 -~ 1;
#X obj 738 447 max~ -1;
#X obj 693 359 /~ \$1;
#X obj 792 425 loadbang;
#X obj 792 447 f \$2;
#X obj 792 469 - 1;
#X obj 693 491 /~ 1, f 17;
#X obj 693 558 outlet~ elevation;
#X connect 0 0 4 0;
#X connect 1 0 22 0;
#X connect 2 0 22 0;
#X connect 4 0 2 0;
#X connect 4 1 25 0;
#X connect 4 2 5 0;
#X connect 5 0 7 0;
#X connect 5 1 6 0;
#X connect 5 2 8 0;
#X connect 5 3 9 0;
#X connect 9 0 10 0;
#X connect 11 0 13 1;
#X connect 12 0 13 1;
#X connect 13 0 14 0;
#X connect 14 0 1 0;
#X connect 14 0 3 0;
#X connect 14 1 11 0;
#X connect 15 0 16 0;
#X connect 16 0 17 0;
#X connect 16 1 19 0;
#X connect 17 0 18 0;
#X connect 18 0 20 0;
#X connect 19 0 18 1;
#X connect 20 0 14 1;
#X connect 21 0 13 0;
#X connect 23 0 24 0;
#X connect 24 0 78 0;
#X connect 26 0 12 0;
#X connect 27 0 28 0;
#X connect 28 0 42 0;
#X connect 29 0 30 0;
#X connect 30 0 41 0;
#X connect 31 0 32 0;
#X connect 32 0 34 0;
#X connect 32 0 33 0;
#X connect 32 0 35 0;
#X connect 32 0 36 0;
#X connect 33 0 34 1;
#X connect 34 0 37 0;
#X connect 35 0 38 0;
#X connect 36 0 35 1;
#X connect 37 0 44 0;
#X connect 38 0 39 0;
#X connect 39 0 37 1;
#X connect 40 0 31 1;
#X connect 41 0 31 0;
#X connect 42 0 29 0;
#X connect 42 1 30 1;
#X connect 42 1 32 1;
#X connect 43 0 45 0;
#X connect 44 0 43 0;
#X connect 46 0 40 0;
#X connect 47 0 61 0;
#X connect 48 0 49 0;
#X connect 48 1 50 1;
#X connect 48 1 65 1;
#X connect 49 0 50 0;
#X connect 50 0 60 0;
#X connect 51 0 65 0;
#X connect 52 0 53 1;
#X connect 53 0 56 0;
#X connect 54 0 57 0;
#X connect 55 0 54 1;
#X connect 56 0 73 0;
#X connect 57 0 58 0;
#X connect 58 0 56 1;
#X connect 59 0 51 1;
#X connect 60 0 51 0;
#X connect 61 0 62 0;
#X connect 61 1 64 0;
#X connect 62 0 63 0;
#X connect 63 0 48 0;
#X connect 64 0 63 1;
#X connect 65 0 53 0;
#X connect 65 0 52 0;
#X connect 65 0 54 0;
#X connect 65 0 55 0;
#X connect 66 0 67 1;
#X connect 67 0 70 0;
#X connect 68 0 71 0;
#X connect 69 0 68 1;
#X connect 70 0 77 0;
#X connect 71 0 72 0;
#X connect 72 0 70 1;
#X connect 73 0 66 0;
#X connect 73 0 67 0;
#X connect 73 0 69 0;
#X connect 73 0 68 0;
#X connect 74 0 75 0;
#X connect 75 0 76 0;
#X connect 76 0 77 1;
#X connect 77 0 23 0;
#X coords 0 650 1 649 86 80 0;
