#N canvas 131 111 823 523 10;
#X declare -stdlib Hoa;
#X obj 12 404 hoa-help;
#X obj 12 382 misc/hoa.credits;
#X obj 12 357 declare -stdlib Hoa;
#X obj 5 8 cnv 15 250 20 empty empty hoa.2d.vector.analyzer~ 4 10 0
14 -233017 -66577 0;
#X msg 346 400 \; pd dsp 1;
#X msg 346 440 \; pd dsp 0;
#X obj 11 434 misc/hoa.cite;
#X obj 13 202 misc/hoa.number~;
#X obj 101 202 misc/hoa.number~;
#X obj 190 202 misc/hoa.number~;
#X obj 13 243 nbx 5 14 -1e+37 1e+37 0 0 empty empty empty 0 -8 0 10
-262144 -1 -1 1.91977 256;
#X text 70 243 %;
#X obj 101 243 nbx 5 14 -1e+37 1e+37 0 0 empty empty empty 0 -8 0 10
-262144 -1 -1 1.92144 256;
#X text 158 243 %;
#X obj 101 221 * 100;
#X obj 190 243 nbx 5 14 -1e+37 1e+37 0 0 empty empty empty 0 -8 0 10
-262144 -1 -1 0.000571014 256;
#X text 247 243 %;
#X obj 190 221 * 31.8309;
#X obj 13 221 * 100;
#X text 12 262 Global precision deviation (distance), f 10;
#X text 100 262 Resolution diminution (radius difference), f 12;
#X text 189 262 Angular deviation (angular distance), f 10;
#X obj 13 147 r~ \$0-x;
#X obj 101 147 r~ \$0-y;
#X obj 190 147 r~ \$0-a;
#X obj 13 171 hoa.2d.vector.analyzer~, f 30;
#X obj 455 69 sig~ 1;
#X obj 620 45 phasor~ 0.1;
#X obj 620 19 nbx 5 14 -1e+37 1e+37 0 0 empty empty empty 0 -8 0 10
-262144 -1 -1 0 256;
#X msg 693 99 symbol inPhase;
#X msg 693 119 symbol maxRe;
#X msg 693 141 symbol basic;
#X obj 455 94 hoa.2d.encoder~ 7, f 28;
#X obj 455 147 hoa.2d.optim~ 7 maxRe, f 28;
#X obj 455 169 hoa.2d.decoder~ 7 regular 16;
#X obj 455 193 hoa.2d.meter~ @size 171 171 @fontname "Helvetica" @fontweight
"normal" @fontslant "roman" @fontsize 11 @receive "(null)" @send "(null)"
@channels 16 @angles 0 22.5 45 67.5 90 112.5 135 157.5 180 202.5 225
247.5 270 292.5 315 337.5 @offset 0 @rotation "anti-clockwise" @vectors
"energy" @interval 50 @bgcolor 1 1 1 1 @bdcolor 0.7 0.7 0.7 1 @coldcolor
0 0.6 0 0.8 @tepidcolor 0.6 0.73 0 0.8 @warmcolor 0.85 0.85 0 0.8 @hotcolor
1 0.6 0 0.8 @overcolor 1 0 0 0.8 @energycolor 0 0 1 0.8 @velocitycolor
1 0 0 0.8;
#X obj 455 463 s~ \$0-x;
#X obj 620 463 s~ \$0-y;
#X obj 630 89 s~ \$0-a;
#X text 5 31 The abstraction analyzes a vector using an azimuth as
reference. It outputs the euclidean distance between the ideal position
of the vector that matches to the global precision deviation, f 68
;
#X text 43 116 To do: finish this help;
#X obj 620 67 *~ 6.28319;
#X obj 455 376 hoa.2d.process~ 16 hoa.2d.proc.vector.energy~ planewaves
@angles 0 22.5 45 67.5 90 112.5 135 157.5 180 202.5 225 247.5 270 292.5
315 337.5, f 28;
#X connect 7 0 18 0;
#X connect 8 0 14 0;
#X connect 9 0 17 0;
#X connect 14 0 12 0;
#X connect 17 0 15 0;
#X connect 18 0 10 0;
#X connect 22 0 25 0;
#X connect 23 0 25 1;
#X connect 24 0 25 2;
#X connect 25 0 7 0;
#X connect 25 1 8 0;
#X connect 25 2 9 0;
#X connect 26 0 32 0;
#X connect 27 0 41 0;
#X connect 28 0 27 0;
#X connect 29 0 33 14;
#X connect 30 0 33 14;
#X connect 31 0 33 14;
#X connect 32 0 33 0;
#X connect 32 1 33 1;
#X connect 32 2 33 2;
#X connect 32 3 33 3;
#X connect 32 4 33 4;
#X connect 32 5 33 5;
#X connect 32 6 33 6;
#X connect 32 7 33 7;
#X connect 32 8 33 8;
#X connect 32 9 33 9;
#X connect 32 10 33 10;
#X connect 32 11 33 11;
#X connect 32 12 33 12;
#X connect 32 13 33 13;
#X connect 32 14 33 14;
#X connect 33 0 34 0;
#X connect 33 1 34 1;
#X connect 33 2 34 2;
#X connect 33 3 34 3;
#X connect 33 4 34 4;
#X connect 33 5 34 5;
#X connect 33 6 34 6;
#X connect 33 7 34 7;
#X connect 33 8 34 8;
#X connect 33 9 34 9;
#X connect 33 10 34 10;
#X connect 33 11 34 11;
#X connect 33 12 34 12;
#X connect 33 13 34 13;
#X connect 33 14 34 14;
#X connect 34 0 35 0;
#X connect 34 0 42 0;
#X connect 34 1 35 1;
#X connect 34 1 42 1;
#X connect 34 2 35 2;
#X connect 34 2 42 2;
#X connect 34 3 35 3;
#X connect 34 3 42 3;
#X connect 34 4 35 4;
#X connect 34 4 42 4;
#X connect 34 5 35 5;
#X connect 34 5 42 5;
#X connect 34 6 35 6;
#X connect 34 6 42 6;
#X connect 34 7 35 7;
#X connect 34 7 42 7;
#X connect 34 8 35 8;
#X connect 34 8 42 8;
#X connect 34 9 35 9;
#X connect 34 9 42 9;
#X connect 34 10 35 10;
#X connect 34 10 42 10;
#X connect 34 11 35 11;
#X connect 34 11 42 11;
#X connect 34 12 35 12;
#X connect 34 12 42 12;
#X connect 34 13 35 13;
#X connect 34 13 42 13;
#X connect 34 14 35 14;
#X connect 34 14 42 14;
#X connect 34 15 35 15;
#X connect 34 15 42 15;
#X connect 41 0 32 1;
#X connect 41 0 38 0;
#X connect 42 0 36 0;
#X connect 42 1 37 0;
