#N canvas 678 191 450 460 10;
#X obj 20 61 gemhead;
#X obj 20 308 pix_texture;
#X obj 71 17 inlet;
#X obj 132 220 hsv2rgb;
#X msg 132 242 \$1 \$2 \$3 1;
#X obj 95 154 t b l b, f 13;
#N canvas 0 22 155 223 list.iterate 0;
#X obj 31 69 list length;
#X obj 31 91 until;
#X obj 31 135 list split 1;
#X obj 31 115 list, f 6;
#X obj 31 24 inlet;
#X obj 31 46 t l l, f 6;
#X obj 31 157 outlet;
#X connect 0 0 1 0;
#X connect 1 0 3 0;
#X connect 2 0 6 0;
#X connect 2 1 3 1;
#X connect 3 0 2 0;
#X connect 4 0 5 0;
#X connect 5 0 0 0;
#X connect 5 1 3 1;
#X restore 132 176 pd list.iterate;
#X obj 20 411 square 3.5, f 16;
#X obj 20 83 spigot 1, f 9;
#X obj 20 285 pix_set \$1 \$2;
#X msg 132 198 \$1 1 1 1;
#N canvas 0 22 263 140 list.accum 0;
#X obj 78 56 list prepend;
#X obj 157 56 list;
#X obj 78 33 inlet;
#X obj 39 79 list, f 7;
#X obj 39 33 inlet;
#X obj 157 33 inlet;
#X obj 39 101 outlet;
#X connect 0 0 1 0;
#X connect 0 0 3 1;
#X connect 1 0 0 1;
#X connect 2 0 0 0;
#X connect 3 0 6 0;
#X connect 4 0 3 0;
#X connect 5 0 1 0;
#X restore 95 263 pd list.accum;
#X obj 71 61 tgl 15 0 empty empty empty 17 7 0 10 -262144 -1 -1 0 1
;
#X obj 20 347 spigot 1;
#X obj 130 347 spigot 0;
#X obj 71 39 route active list mode size segments;
#X obj 284 142 int;
#X msg 284 120 hoa.3d.vector.plot;
#X obj 113 64 s \$0-l;
#X obj 95 133 r \$0-l;
#X obj 175 319 f 1;
#X obj 145 319 f 0;
#X obj 205 319 f 1;
#X obj 235 297 r \$0-sq;
#X obj 156 132 s \$0-sp;
#X obj 211 132 s \$0-sq;
#X obj 235 319 f 0;
#X obj 198 64 s \$0-size;
#X obj 113 375 r \$0-size;
#X obj 205 375 r \$0-segments;
#X obj 156 87 route sphere square;
#X obj 156 109 bang;
#X obj 211 109 bang;
#X obj 175 297 r \$0-sp;
#X obj 130 411 sphere 2 64;
#X connect 0 0 8 0;
#X connect 1 0 13 0;
#X connect 1 0 14 0;
#X connect 2 0 15 0;
#X connect 3 0 4 0;
#X connect 4 0 11 1;
#X connect 5 0 11 0;
#X connect 5 1 6 0;
#X connect 5 2 11 2;
#X connect 6 0 10 0;
#X connect 8 0 9 0;
#X connect 9 0 1 0;
#X connect 10 0 3 0;
#X connect 11 0 9 1;
#X connect 12 0 8 1;
#X connect 13 0 7 0;
#X connect 14 0 34 0;
#X connect 15 0 12 0;
#X connect 15 1 18 0;
#X connect 15 2 30 0;
#X connect 15 3 27 0;
#X connect 15 5 17 0;
#X connect 17 0 16 0;
#X connect 19 0 5 0;
#X connect 20 0 14 1;
#X connect 21 0 13 1;
#X connect 22 0 13 1;
#X connect 23 0 22 0;
#X connect 23 0 26 0;
#X connect 26 0 14 1;
#X connect 28 0 7 1;
#X connect 28 0 34 1;
#X connect 29 0 34 2;
#X connect 30 0 31 0;
#X connect 30 1 32 0;
#X connect 30 2 17 0;
#X connect 31 0 24 0;
#X connect 32 0 25 0;
#X connect 33 0 20 0;
#X connect 33 0 21 0;
#X coords 0 460 1 459 86 80 0;
