#N canvas 435 122 667 602 10;
#X declare -stdlib Hoa;
#X msg 367 45 \; pd dsp 1;
#X msg 367 80 \; pd dsp 0;
#X obj 5 8 cnv 15 200 20 empty empty hoa.3d.plot.square 4 10 0 14 -233017
-66577 0;
#X obj 215 61 hoa-help;
#X obj 215 39 misc/hoa.credits;
#X obj 12 94 tgl 15 0 empty empty empty 17 7 0 10 -262144 -1 -1 1 1
;
#X text 5 31 hoa.3d.plot.square ...;
#X obj 13 207 bng 15 250 50 0 empty empty empty 17 7 0 10 -262144 -1
-1;
#X obj 206 164 array define \$0-values 4096;
#X obj 14 425 array get \$0-values;
#X obj 14 380 r \$0-done;
#X obj 14 402 bng 15 250 50 0 empty empty empty 17 7 0 10 -262144 -1
-1;
#X msg 142 424 size \$1;
#X obj 142 400 nbx 5 14 1 4 0 0 empty \$0-size-r empty 0 -8 0 10 -262144
-1 -1 3.5 256;
#X msg 202 424 active \$1;
#X obj 202 400 tgl 15 0 empty \$0-display-r empty 17 7 0 10 -262144
-1 -1 1 1;
#N canvas 0 22 450 300 init 0;
#X obj 62 65 loadbang;
#X msg 62 87 3.5;
#X obj 62 109 s \$0-size-r;
#X msg 142 87 1;
#X obj 142 109 s \$0-display-r;
#X connect 0 0 1 0;
#X connect 0 0 3 0;
#X connect 1 0 2 0;
#X connect 3 0 4 0;
#X restore 214 83 pd init;
#X text 11 355 3 - Plot the coefficients;
#X text 11 164 2 - Generate new coefficients;
#X text 11 74 1 - Create a new GEM window;
#X text 170 514 arguments is the dimension of the matrix (columns x
rows), f 31;
#N canvas 0 23 174 141 gem.window 0;
#X obj 8 89 gemwin;
#X msg 8 59 destroy;
#X msg 65 59 create \, 1;
#X obj 8 37 sel 0, f 10;
#X obj 8 15 inlet;
#X connect 1 0 0 0;
#X connect 2 0 0 0;
#X connect 3 0 1 0;
#X connect 3 1 2 0;
#X connect 4 0 3 0;
#X restore 12 114 pd gem.window;
#X obj 13 258 bng 15 250 50 0 empty empty empty 17 7 0 10 -262144 -1
-1;
#N canvas 0 22 450 300 gen.elevation.test 0;
#X obj 13 58 until;
#X obj 13 81 misc/hoa.counter 0 4096 1;
#X obj 13 103 t f f f, f 22;
#X obj 77 192 array set \$0-values;
#X obj 13 125 sel 4095;
#X obj 13 192 s \$0-done;
#X msg 13 36 4096;
#X obj 77 147 int;
#X obj 77 125 / 64;
#X obj 77 169 / 63;
#X obj 13 14 inlet;
#X connect 0 0 1 0;
#X connect 1 0 2 0;
#X connect 2 0 4 0;
#X connect 2 1 8 0;
#X connect 2 2 3 1;
#X connect 4 0 5 0;
#X connect 6 0 0 0;
#X connect 7 0 9 0;
#X connect 8 0 7 0;
#X connect 9 0 3 0;
#X connect 10 0 6 0;
#X restore 13 281 pd gen.elevation.test;
#N canvas 0 22 450 300 gen.azimuth.test 0;
#X obj 13 58 until;
#X obj 13 81 misc/hoa.counter 0 4096 1;
#X obj 13 103 t f f f, f 22;
#X obj 77 192 array set \$0-values;
#X obj 13 125 sel 4095;
#X obj 13 192 s \$0-done;
#X msg 13 36 4096;
#X obj 13 14 inlet;
#X obj 77 125 % 64;
#X obj 77 169 / 64;
#X connect 0 0 1 0;
#X connect 1 0 2 0;
#X connect 2 0 4 0;
#X connect 2 1 8 0;
#X connect 2 2 3 1;
#X connect 4 0 5 0;
#X connect 6 0 0 0;
#X connect 7 0 6 0;
#X connect 8 0 9 0;
#X connect 9 0 3 0;
#X restore 13 230 pd gen.azimuth.test;
#N canvas 423 98 931 606 gen.3rd.order.regular.test 0;
#X obj 443 112 inlet;
#X obj 30 161 hoa.3d.encoder~ 3, f 28;
#X obj 30 206 hoa.3d.decoder~ 3 regular 20;
#X obj 30 136 sig~ 1;
#X obj 30 368 hoa.3d.vec.energy.perf~, f 28;
#X obj 30 396 hoa.3d.vec.energy.cmp~, f 56;
#X obj 30 420 misc/hoa.number~;
#X obj 196 420 misc/hoa.number~;
#X obj 363 419 misc/hoa.number~;
#X obj 30 228 hoa.3d.process~ 20 hoa.3d.vec.energy.proc~ planewaves
@angles 180 69.1 159.1 0 90 20.9 135 35.3 135 -35.3 180 -69.1 20.9
0 90 -20.9 45 35.3 45 -35.3 0 69.1 200.9 0 270 20.9 225 35.3 225 -35.3
0 -69.1 339.1 0 270 -20.9 315 35.3 315 -35.3, f 28;
#X obj 15 468 sig~ 1;
#X obj 15 490 -~;
#X obj 15 511 *~ 0.33333;
#X obj 181 490 -~;
#X obj 181 468 sig~ 1;
#X obj 181 511 *~ 0.33333;
#X obj 348 490 -~;
#X obj 348 468 sig~ 1;
#X obj 348 511 *~ 0.33333;
#X obj 195 49 /~ 64;
#X obj 195 27 misc/hoa.count~ 4096;
#X obj 15 539 tabwrite~ \$0-values;
#X obj 181 539 tabwrite~ \$0-values;
#X obj 348 539 tabwrite~ \$0-values;
#X obj 195 71 misc/hoa.int~;
#X obj 112 4 misc/hoa.count~ 64;
#X obj 112 26 /~ 64;
#X obj 112 48 *~ 6.28319;
#X obj 252 367 misc/hoa.sphetocar~;
#X obj 252 333 sig~ 1;
#X obj 195 93 /~ 63;
#X obj 195 115 -~ 0.5;
#X obj 195 137 *~ 3.14159;
#X msg 471 179 reset;
#X obj 471 204 misc/hoa.counter 0 65 1;
#X obj 471 226 sel 64;
#X obj 521 180 bang~;
#X obj 471 271 switch~;
#X obj 471 248 f 0;
#X obj 443 178 f 1;
#X obj 500 157 route euclidean radius orthodromic;
#X obj 88 511 bang;
#X obj 258 511 bang;
#X obj 418 511 bang;
#X obj 521 271 s \$0-done;
#X obj 443 136 t b b a, f 10;
#X obj 363 442 /~ 3.14159;
#X obj 30 184 hoa.3d.optim~ 3 basic, f 28;
#X connect 0 0 45 0;
#X connect 1 0 47 0;
#X connect 1 1 47 1;
#X connect 1 2 47 2;
#X connect 1 3 47 3;
#X connect 1 4 47 4;
#X connect 1 5 47 5;
#X connect 1 6 47 6;
#X connect 1 7 47 7;
#X connect 1 8 47 8;
#X connect 1 9 47 9;
#X connect 1 10 47 10;
#X connect 1 11 47 11;
#X connect 1 12 47 12;
#X connect 1 13 47 13;
#X connect 1 14 47 14;
#X connect 1 15 47 15;
#X connect 3 0 1 0;
#X connect 4 0 5 0;
#X connect 4 1 5 1;
#X connect 4 2 5 2;
#X connect 5 0 6 0;
#X connect 5 0 11 1;
#X connect 5 1 7 0;
#X connect 5 1 13 1;
#X connect 5 2 8 0;
#X connect 5 2 46 0;
#X connect 10 0 11 0;
#X connect 11 0 12 0;
#X connect 12 0 21 0;
#X connect 13 0 15 0;
#X connect 14 0 13 0;
#X connect 15 0 22 0;
#X connect 16 0 18 0;
#X connect 17 0 16 0;
#X connect 18 0 23 0;
#X connect 19 0 24 0;
#X connect 20 0 19 0;
#X connect 24 0 30 0;
#X connect 25 0 26 0;
#X connect 26 0 27 0;
#X connect 27 0 1 1;
#X connect 27 0 28 1;
#X connect 28 0 5 3;
#X connect 28 1 5 4;
#X connect 28 2 5 5;
#X connect 29 0 28 0;
#X connect 30 0 31 0;
#X connect 31 0 32 0;
#X connect 32 0 1 2;
#X connect 32 0 28 2;
#X connect 33 0 34 0;
#X connect 33 0 20 0;
#X connect 33 0 25 0;
#X connect 34 0 35 0;
#X connect 35 0 38 0;
#X connect 35 0 44 0;
#X connect 36 0 34 0;
#X connect 38 0 37 0;
#X connect 39 0 37 0;
#X connect 40 0 41 0;
#X connect 40 1 42 0;
#X connect 40 2 43 0;
#X connect 41 0 21 0;
#X connect 42 0 22 0;
#X connect 43 0 23 0;
#X connect 45 0 39 0;
#X connect 45 1 33 0;
#X connect 45 2 40 0;
#X connect 46 0 16 1;
#X connect 47 0 2 0;
#X connect 47 1 2 1;
#X connect 47 2 2 2;
#X connect 47 3 2 3;
#X connect 47 4 2 4;
#X connect 47 5 2 5;
#X connect 47 6 2 6;
#X connect 47 7 2 7;
#X connect 47 8 2 8;
#X connect 47 9 2 9;
#X connect 47 10 2 10;
#X connect 47 11 2 11;
#X connect 47 12 2 12;
#X connect 47 13 2 13;
#X connect 47 14 2 14;
#X connect 47 15 2 15;
#X restore 153 222 pd gen.3rd.order.regular.test;
#X obj 215 14 declare -stdlib Hoa;
#X msg 153 197 euclidean;
#X msg 221 197 radius;
#X msg 271 197 orthodromic;
#X msg 153 257 euclidean;
#X msg 221 257 radius;
#X msg 271 257 orthodromic;
#N canvas 423 98 931 606 gen.3rd.order.irregular.test 0;
#X obj 443 112 inlet;
#X obj 30 161 hoa.3d.encoder~ 3, f 28;
#X obj 30 184 hoa.3d.optim~ 3 inPhase, f 28;
#X obj 30 136 sig~ 1;
#X obj 30 368 hoa.3d.vec.energy.perf~, f 28;
#X obj 30 396 hoa.3d.vec.energy.cmp~, f 56;
#X obj 30 420 misc/hoa.number~;
#X obj 196 420 misc/hoa.number~;
#X obj 363 419 misc/hoa.number~;
#X obj 15 468 sig~ 1;
#X obj 15 490 -~;
#X obj 15 511 *~ 0.33333;
#X obj 181 490 -~;
#X obj 181 468 sig~ 1;
#X obj 181 511 *~ 0.33333;
#X obj 348 490 -~;
#X obj 348 468 sig~ 1;
#X obj 348 511 *~ 0.33333;
#X obj 195 49 /~ 64;
#X obj 195 27 misc/hoa.count~ 4096;
#X obj 15 539 tabwrite~ \$0-values;
#X obj 181 539 tabwrite~ \$0-values;
#X obj 348 539 tabwrite~ \$0-values;
#X obj 195 71 misc/hoa.int~;
#X obj 112 4 misc/hoa.count~ 64;
#X obj 112 26 /~ 64;
#X obj 112 48 *~ 6.28319;
#X obj 252 367 misc/hoa.sphetocar~;
#X obj 252 333 sig~ 1;
#X obj 195 93 /~ 63;
#X obj 195 115 -~ 0.5;
#X obj 195 137 *~ 3.14159;
#X msg 471 179 reset;
#X obj 471 204 misc/hoa.counter 0 65 1;
#X obj 471 226 sel 64;
#X obj 521 180 bang~;
#X obj 471 271 switch~;
#X obj 471 248 f 0;
#X obj 443 178 f 1;
#X obj 500 157 route euclidean radius orthodromic;
#X obj 88 511 bang;
#X obj 258 511 bang;
#X obj 418 511 bang;
#X obj 521 271 s \$0-done;
#X obj 443 136 t b b a, f 10;
#X obj 30 206 hoa.3d.decoder~ 3 regular 12;
#X obj 30 228 hoa.3d.process~ 12 hoa.3d.vec.energy.proc~ planewaves
@angles 180 90 0 26.6 324 -26.6 72 26.6 36 -26.6 144 26.6 108 -26.6
216 26.6 180 -26.6 288 26.6 252 -26.6 180 -90, f 28;
#X obj 363 442 /~ 3.14159;
#X connect 0 0 44 0;
#X connect 1 0 2 0;
#X connect 1 1 2 1;
#X connect 1 2 2 2;
#X connect 1 3 2 3;
#X connect 1 4 2 4;
#X connect 1 5 2 5;
#X connect 1 6 2 6;
#X connect 1 7 2 7;
#X connect 1 8 2 8;
#X connect 1 9 2 9;
#X connect 1 10 2 10;
#X connect 1 11 2 11;
#X connect 1 12 2 12;
#X connect 1 13 2 13;
#X connect 1 14 2 14;
#X connect 1 15 2 15;
#X connect 2 0 45 0;
#X connect 2 1 45 1;
#X connect 2 2 45 2;
#X connect 2 3 45 3;
#X connect 2 4 45 4;
#X connect 2 5 45 5;
#X connect 2 6 45 6;
#X connect 2 7 45 7;
#X connect 2 8 45 8;
#X connect 2 9 45 9;
#X connect 2 10 45 10;
#X connect 2 11 45 11;
#X connect 2 12 45 12;
#X connect 2 13 45 13;
#X connect 2 14 45 14;
#X connect 2 15 45 15;
#X connect 3 0 1 0;
#X connect 4 0 5 0;
#X connect 4 1 5 1;
#X connect 4 2 5 2;
#X connect 5 0 6 0;
#X connect 5 0 10 1;
#X connect 5 1 7 0;
#X connect 5 1 12 1;
#X connect 5 2 8 0;
#X connect 5 2 47 0;
#X connect 9 0 10 0;
#X connect 10 0 11 0;
#X connect 11 0 20 0;
#X connect 12 0 14 0;
#X connect 13 0 12 0;
#X connect 14 0 21 0;
#X connect 15 0 17 0;
#X connect 16 0 15 0;
#X connect 17 0 22 0;
#X connect 18 0 23 0;
#X connect 19 0 18 0;
#X connect 23 0 29 0;
#X connect 24 0 25 0;
#X connect 25 0 26 0;
#X connect 26 0 1 1;
#X connect 26 0 27 1;
#X connect 27 0 5 3;
#X connect 27 1 5 4;
#X connect 27 2 5 5;
#X connect 28 0 27 0;
#X connect 29 0 30 0;
#X connect 30 0 31 0;
#X connect 31 0 1 2;
#X connect 31 0 27 2;
#X connect 32 0 33 0;
#X connect 32 0 19 0;
#X connect 32 0 24 0;
#X connect 33 0 34 0;
#X connect 34 0 37 0;
#X connect 34 0 43 0;
#X connect 35 0 33 0;
#X connect 37 0 36 0;
#X connect 38 0 36 0;
#X connect 39 0 40 0;
#X connect 39 1 41 0;
#X connect 39 2 42 0;
#X connect 40 0 20 0;
#X connect 41 0 21 0;
#X connect 42 0 22 0;
#X connect 44 0 38 0;
#X connect 44 1 32 0;
#X connect 44 2 39 0;
#X connect 47 0 15 1;
#X restore 153 282 pd gen.3rd.order.irregular.test;
#X msg 373 197 euclidean;
#X msg 441 197 radius;
#X msg 491 197 orthodromic;
#N canvas 218 90 931 671 gen.3rd.order.irregular.test 0;
#X obj 443 112 inlet;
#X obj 30 161 hoa.3d.encoder~ 3, f 28;
#X obj 30 184 hoa.3d.optim~ 3 inPhase, f 28;
#X obj 30 136 sig~ 1;
#X obj 30 358 hoa.3d.vec.energy.perf~, f 28;
#X obj 30 446 hoa.3d.vec.energy.cmp~, f 56;
#X obj 30 470 misc/hoa.number~;
#X obj 196 470 misc/hoa.number~;
#X obj 363 469 misc/hoa.number~;
#X obj 15 518 sig~ 1;
#X obj 15 540 -~;
#X obj 15 561 *~ 0.33333;
#X obj 181 540 -~;
#X obj 181 518 sig~ 1;
#X obj 181 561 *~ 0.33333;
#X obj 348 540 -~;
#X obj 348 518 sig~ 1;
#X obj 348 561 *~ 0.33333;
#X obj 195 49 /~ 64;
#X obj 195 27 misc/hoa.count~ 4096;
#X obj 15 589 tabwrite~ \$0-values;
#X obj 181 589 tabwrite~ \$0-values;
#X obj 348 589 tabwrite~ \$0-values;
#X obj 195 71 misc/hoa.int~;
#X obj 112 4 misc/hoa.count~ 64;
#X obj 112 26 /~ 64;
#X obj 112 48 *~ 6.28319;
#X obj 252 417 misc/hoa.sphetocar~;
#X obj 252 393 sig~ 1;
#X obj 195 93 /~ 63;
#X obj 195 115 -~ 0.5;
#X obj 195 137 *~ 3.14159;
#X msg 471 179 reset;
#X obj 471 204 misc/hoa.counter 0 65 1;
#X obj 471 226 sel 64;
#X obj 521 180 bang~;
#X obj 471 271 switch~;
#X obj 471 248 f 0;
#X obj 443 178 f 1;
#X obj 500 157 route euclidean radius orthodromic;
#X obj 88 561 bang;
#X obj 258 561 bang;
#X obj 418 561 bang;
#X obj 521 271 s \$0-done;
#X obj 443 136 t b b a, f 10;
#X obj 30 206 hoa.3d.decoder~ 3 regular 12 @angles 0 0 30 0 60 0 90
0 120 0 150 0 180 0 210 0 240 0 270 0 300 0 330 0, f 28;
#X obj 363 492 /~ 3.14159;
#X obj 416 227 bng 15 250 50 0 empty empty empty 17 7 0 10 -262144
-1 -1;
#X obj 30 268 hoa.3d.process~ 12 hoa.3d.vec.energy.proc~ planewaves
@angles 0 0 30 0 60 0 90 0 120 0 150 0 180 0 210 0 240 0 270 0 300
0 330 0, f 28;
#X obj 703 289 bng 15 250 50 0 empty empty empty 17 7 0 10 -262144
-1 -1;
#X obj 703 309 hoa.connect;
#X connect 0 0 44 0;
#X connect 1 0 2 0;
#X connect 1 1 2 1;
#X connect 1 2 2 2;
#X connect 1 3 2 3;
#X connect 1 4 2 4;
#X connect 1 5 2 5;
#X connect 1 6 2 6;
#X connect 1 7 2 7;
#X connect 1 8 2 8;
#X connect 1 9 2 9;
#X connect 1 10 2 10;
#X connect 1 11 2 11;
#X connect 1 12 2 12;
#X connect 1 13 2 13;
#X connect 1 14 2 14;
#X connect 1 15 2 15;
#X connect 2 0 45 0;
#X connect 2 1 45 1;
#X connect 2 2 45 2;
#X connect 2 3 45 3;
#X connect 2 4 45 4;
#X connect 2 5 45 5;
#X connect 2 6 45 6;
#X connect 2 7 45 7;
#X connect 2 8 45 8;
#X connect 2 9 45 9;
#X connect 2 10 45 10;
#X connect 2 11 45 11;
#X connect 2 12 45 12;
#X connect 2 13 45 13;
#X connect 2 14 45 14;
#X connect 2 15 45 15;
#X connect 3 0 1 0;
#X connect 4 0 5 0;
#X connect 4 1 5 1;
#X connect 4 2 5 2;
#X connect 5 0 6 0;
#X connect 5 0 10 1;
#X connect 5 1 7 0;
#X connect 5 1 12 1;
#X connect 5 2 8 0;
#X connect 5 2 46 0;
#X connect 9 0 10 0;
#X connect 10 0 11 0;
#X connect 11 0 20 0;
#X connect 12 0 14 0;
#X connect 13 0 12 0;
#X connect 14 0 21 0;
#X connect 15 0 17 0;
#X connect 16 0 15 0;
#X connect 17 0 22 0;
#X connect 18 0 23 0;
#X connect 19 0 18 0;
#X connect 23 0 29 0;
#X connect 24 0 25 0;
#X connect 25 0 26 0;
#X connect 26 0 1 1;
#X connect 26 0 27 1;
#X connect 27 0 5 3;
#X connect 27 1 5 4;
#X connect 27 2 5 5;
#X connect 28 0 27 0;
#X connect 29 0 30 0;
#X connect 30 0 31 0;
#X connect 31 0 1 2;
#X connect 31 0 27 2;
#X connect 32 0 33 0;
#X connect 32 0 19 0;
#X connect 32 0 24 0;
#X connect 33 0 34 0;
#X connect 34 0 37 0;
#X connect 34 0 43 0;
#X connect 35 0 33 0;
#X connect 37 0 36 0;
#X connect 38 0 36 0;
#X connect 39 0 40 0;
#X connect 39 1 41 0;
#X connect 39 2 42 0;
#X connect 40 0 20 0;
#X connect 41 0 21 0;
#X connect 42 0 22 0;
#X connect 44 0 38 0;
#X connect 44 1 32 0;
#X connect 44 2 39 0;
#X connect 46 0 15 1;
#X connect 47 0 36 0;
#X connect 49 0 50 0;
#X restore 373 222 pd gen.3rd.order.irregular.test;
#X obj 14 519 hoa.3d.vector.plot 64 64;
#X msg 201 453 mode sphere;
#X msg 200 483 mode square;
#X connect 5 0 21 0;
#X connect 7 0 24 0;
#X connect 9 0 38 0;
#X connect 10 0 11 0;
#X connect 11 0 9 0;
#X connect 12 0 38 0;
#X connect 13 0 12 0;
#X connect 14 0 38 0;
#X connect 15 0 14 0;
#X connect 22 0 23 0;
#X connect 27 0 25 0;
#X connect 28 0 25 0;
#X connect 29 0 25 0;
#X connect 30 0 33 0;
#X connect 31 0 33 0;
#X connect 32 0 33 0;
#X connect 34 0 37 0;
#X connect 35 0 37 0;
#X connect 36 0 37 0;
#X connect 39 0 38 0;
#X connect 40 0 38 0;
#X coords 0 602 1 601 100 60 0;
