#N canvas 284 278 429 206 10;
#X obj 12 84 -~;
#X obj 73 84 -~;
#X obj 134 84 -~;
#X obj 12 106 *~;
#X obj 73 106 *~;
#X obj 134 106 *~;
#X obj 12 138 sqrt~;
#X obj 12 160 outlet~;
#X text 9 7 Euclidean distance;
#X obj 12 52 inlet~ x1;
#X obj 73 52 inlet~ y1;
#X obj 134 52 inlet~ z1;
#X obj 195 52 inlet~ x2;
#X obj 256 52 inlet~ y2;
#X obj 317 52 inlet~ z2;
#X text 9 27 d = √((x1-x2)*(y1-y2)*(z1-z2)).;
#X connect 0 0 3 0;
#X connect 0 0 3 1;
#X connect 1 0 4 0;
#X connect 1 0 4 1;
#X connect 2 0 5 0;
#X connect 2 0 5 1;
#X connect 3 0 6 0;
#X connect 4 0 6 0;
#X connect 5 0 6 0;
#X connect 6 0 7 0;
#X connect 9 0 0 0;
#X connect 10 0 1 0;
#X connect 11 0 2 0;
#X connect 12 0 0 1;
#X connect 13 0 1 1;
#X connect 14 0 2 1;
#X coords 0 206 1 205 54 14 0;
