#N canvas 394 23 541 798 10;
#X obj 20 139 gemhead;
#X obj 20 642 pix_texture;
#X obj 71 65 inlet;
#X obj 132 554 hsv2rgb;
#X msg 132 576 \$1 \$2 \$3 1;
#X obj 95 272 t b l b, f 13;
#N canvas 0 22 155 223 list.iterate 0;
#X obj 31 69 list length;
#X obj 31 91 until;
#X obj 31 135 list split 1;
#X obj 31 115 list, f 6;
#X obj 31 24 inlet;
#X obj 31 46 t l l, f 6;
#X obj 31 157 outlet;
#X connect 0 0 1 0;
#X connect 1 0 3 0;
#X connect 2 0 6 0;
#X connect 2 1 3 1;
#X connect 3 0 2 0;
#X connect 4 0 5 0;
#X connect 5 0 0 0;
#X connect 5 1 3 1;
#X restore 132 294 pd list.iterate;
#X obj 20 745 square 3.5, f 16;
#X obj 20 161 spigot 1, f 9;
#X obj 20 619 pix_set \$1 \$2;
#X msg 132 532 \$1 1 1 1;
#N canvas 0 22 263 140 list.accum 0;
#X obj 78 56 list prepend;
#X obj 157 56 list;
#X obj 78 33 inlet;
#X obj 39 79 list, f 7;
#X obj 39 33 inlet;
#X obj 157 33 inlet;
#X obj 39 101 outlet;
#X connect 0 0 1 0;
#X connect 0 0 3 1;
#X connect 1 0 0 1;
#X connect 2 0 0 0;
#X connect 3 0 6 0;
#X connect 4 0 3 0;
#X connect 5 0 1 0;
#X restore 95 597 pd list.accum;
#X obj 71 139 tgl 15 0 empty empty empty 17 7 0 10 -262144 -1 -1 1
1;
#X obj 20 681 spigot 1;
#X obj 130 681 spigot 0;
#X obj 284 220 int;
#X msg 284 198 hoa.3d.vector.plot;
#X obj 113 142 s \$0-l;
#X obj 95 246 r \$0-l;
#X obj 175 653 f 1;
#X obj 145 653 f 0;
#X obj 205 653 f 1;
#X obj 235 631 r \$0-sq;
#X obj 156 210 s \$0-sp;
#X obj 211 210 s \$0-sq;
#X obj 235 653 f 0;
#X obj 198 142 s \$0-size;
#X obj 113 709 r \$0-size;
#X obj 205 709 r \$0-segments;
#X obj 156 165 route sphere square;
#X obj 156 187 bang;
#X obj 211 187 bang;
#X obj 175 631 r \$0-sp;
#X obj 132 416 clip 0 1;
#X obj 132 508 * 0.333333;
#X msg 376 737 draw line;
#X obj 376 697 loadbang;
#X obj 289 737 color 0 0 0;
#X obj 210 681 spigot 0;
#X obj 132 438 t b f;
#X obj 132 460 f 1;
#X obj 132 482 -, f 5;
#X obj 289 765 sphere 2.1 64;
#X obj 241 120 s \$0-segments;
#X obj 71 87 route active list mode size segments gain, f 43;
#X obj 283 142 s \$0-gain;
#X obj 132 394 * 1;
#X obj 147 367 r \$0-gain;
#X obj 130 745 sphere 2 64;
#X obj 221 740 + 0.1;
#X connect 0 0 8 0;
#X connect 1 0 13 0;
#X connect 1 0 14 0;
#X connect 2 0 44 0;
#X connect 3 0 4 0;
#X connect 4 0 11 1;
#X connect 5 0 11 0;
#X connect 5 1 6 0;
#X connect 5 2 11 2;
#X connect 6 0 46 0;
#X connect 8 0 9 0;
#X connect 8 0 38 0;
#X connect 9 0 1 0;
#X connect 10 0 3 0;
#X connect 11 0 9 1;
#X connect 12 0 8 1;
#X connect 13 0 7 0;
#X connect 14 0 48 0;
#X connect 16 0 15 0;
#X connect 18 0 5 0;
#X connect 19 0 14 1;
#X connect 19 0 38 1;
#X connect 20 0 13 1;
#X connect 21 0 13 1;
#X connect 22 0 21 0;
#X connect 22 0 25 0;
#X connect 25 0 14 1;
#X connect 25 0 38 1;
#X connect 27 0 7 1;
#X connect 27 0 48 1;
#X connect 27 0 49 0;
#X connect 28 0 48 2;
#X connect 29 0 30 0;
#X connect 29 1 31 0;
#X connect 29 2 16 0;
#X connect 30 0 23 0;
#X connect 31 0 24 0;
#X connect 32 0 19 0;
#X connect 32 0 20 0;
#X connect 33 0 39 0;
#X connect 34 0 10 0;
#X connect 35 0 42 0;
#X connect 36 0 35 0;
#X connect 37 0 42 0;
#X connect 38 0 37 0;
#X connect 39 0 40 0;
#X connect 39 1 41 1;
#X connect 40 0 41 0;
#X connect 41 0 34 0;
#X connect 44 0 12 0;
#X connect 44 1 17 0;
#X connect 44 2 29 0;
#X connect 44 3 26 0;
#X connect 44 4 43 0;
#X connect 44 5 45 0;
#X connect 44 6 16 0;
#X connect 46 0 33 0;
#X connect 47 0 46 1;
#X connect 49 0 42 1;
#X coords 0 798 1 797 86 80 0;
