#N canvas 578 313 501 388 10;
#X obj 20 116 -~;
#X obj 20 138 /~ 2;
#X obj 20 205 *~;
#X obj 20 183 cos~;
#X obj 20 161 +~ 0.25;
#X obj 140 116 -~;
#X obj 140 138 /~ 2;
#X obj 140 205 *~;
#X obj 140 183 cos~;
#X obj 140 161 +~ 0.25;
#X obj 80 137 cos~;
#X obj 111 137 cos~;
#X obj 80 159 *~;
#X obj 80 231 *~;
#X obj 20 249 +~;
#X obj 20 271 sqrt~;
#X obj 20 293 expr~ asin($v1);
#X obj 20 315 *~ 2;
#X obj 170 79 /~ 6.28319;
#X obj 20 79 /~ 6.28319;
#X obj 250 79 /~ 6.28319;
#X obj 90 79 /~ 6.28319;
#X text 9 6 The angular distance;
#X text 9 26 d = 2asin(√ (sin((θ1-θ2)/2)^2 * cos(φ1) * cos(φ2)
+ sin((φ1-φ2)/2)^2)), f 71;
#X obj 20 57 inlet~ θ1;
#X obj 20 337 outlet~ d;
#X obj 170 57 inlet~ θ2;
#X obj 90 57 inlet~ φ1;
#X obj 250 57 inlet~ φ1;
#X connect 0 0 1 0;
#X connect 1 0 4 0;
#X connect 2 0 14 0;
#X connect 3 0 2 0;
#X connect 3 0 2 1;
#X connect 4 0 3 0;
#X connect 5 0 6 0;
#X connect 6 0 9 0;
#X connect 7 0 13 1;
#X connect 8 0 7 0;
#X connect 8 0 7 1;
#X connect 9 0 8 0;
#X connect 10 0 12 0;
#X connect 11 0 12 1;
#X connect 12 0 13 0;
#X connect 13 0 14 1;
#X connect 14 0 15 0;
#X connect 15 0 16 0;
#X connect 16 0 17 0;
#X connect 17 0 25 0;
#X connect 18 0 5 1;
#X connect 19 0 5 0;
#X connect 20 0 0 1;
#X connect 20 0 11 0;
#X connect 21 0 0 0;
#X connect 21 0 10 0;
#X connect 24 0 19 0;
#X connect 26 0 18 0;
#X connect 27 0 21 0;
#X connect 28 0 20 0;
#X coords 0 388 1 387 54 14 0;
